<mxfile host="app.diagrams.net" modified="2024-05-01T11:21:58.553Z" agent="Mozilla/5.0 (Windows NT 10.0; Win64; x64) AppleWebKit/537.36 (KHTML, like Gecko) Chrome/124.0.0.0 Safari/537.36" etag="LlGoV77hwBIKuEy8Wy6a" version="24.3.1" type="device">
  <diagram name="Seite-1" id="GNeFGw2LWxJORsVikong">
    <mxGraphModel dx="1167" dy="1126" grid="1" gridSize="10" guides="1" tooltips="1" connect="1" arrows="1" fold="1" page="0" pageScale="1" pageWidth="827" pageHeight="1169" math="0" shadow="0">
      <root>
        <mxCell id="0" />
        <mxCell id="1" parent="0" />
        <mxCell id="FRPquQBEaZ74YHBhZvah-1" value="&lt;p&gt;Stack&lt;/p&gt;" style="rounded=0;whiteSpace=wrap;html=1;fillColor=none;align=left;verticalAlign=middle;labelPosition=center;verticalLabelPosition=middle;" vertex="1" parent="1">
          <mxGeometry x="60" y="240" width="940" height="60" as="geometry" />
        </mxCell>
        <mxCell id="FRPquQBEaZ74YHBhZvah-118" style="edgeStyle=orthogonalEdgeStyle;rounded=0;orthogonalLoop=1;jettySize=auto;html=1;exitX=0.5;exitY=0;exitDx=0;exitDy=0;entryX=0;entryY=0.5;entryDx=0;entryDy=0;" edge="1" parent="1" source="FRPquQBEaZ74YHBhZvah-2" target="FRPquQBEaZ74YHBhZvah-46">
          <mxGeometry relative="1" as="geometry" />
        </mxCell>
        <mxCell id="FRPquQBEaZ74YHBhZvah-2" value="module" style="rounded=0;whiteSpace=wrap;html=1;labelPosition=center;verticalLabelPosition=bottom;align=center;verticalAlign=top;" vertex="1" parent="1">
          <mxGeometry x="210" y="255" width="30" height="20" as="geometry" />
        </mxCell>
        <mxCell id="FRPquQBEaZ74YHBhZvah-117" style="edgeStyle=orthogonalEdgeStyle;rounded=0;orthogonalLoop=1;jettySize=auto;html=1;exitX=0.5;exitY=0;exitDx=0;exitDy=0;entryX=0;entryY=0.5;entryDx=0;entryDy=0;" edge="1" parent="1" source="FRPquQBEaZ74YHBhZvah-3" target="FRPquQBEaZ74YHBhZvah-49">
          <mxGeometry relative="1" as="geometry" />
        </mxCell>
        <mxCell id="FRPquQBEaZ74YHBhZvah-3" value="oose" style="rounded=0;whiteSpace=wrap;html=1;labelPosition=center;verticalLabelPosition=bottom;align=center;verticalAlign=top;" vertex="1" parent="1">
          <mxGeometry x="400" y="255" width="30" height="20" as="geometry" />
        </mxCell>
        <mxCell id="FRPquQBEaZ74YHBhZvah-5" value="Heap" style="rounded=0;whiteSpace=wrap;html=1;fillColor=none;align=left;verticalAlign=middle;labelPosition=center;verticalLabelPosition=middle;" vertex="1" parent="1">
          <mxGeometry x="60" y="80" width="940" height="160" as="geometry" />
        </mxCell>
        <mxCell id="FRPquQBEaZ74YHBhZvah-113" style="edgeStyle=orthogonalEdgeStyle;rounded=0;orthogonalLoop=1;jettySize=auto;html=1;exitX=0.5;exitY=0;exitDx=0;exitDy=0;entryX=0;entryY=0.5;entryDx=0;entryDy=0;" edge="1" parent="1" source="FRPquQBEaZ74YHBhZvah-7" target="FRPquQBEaZ74YHBhZvah-61">
          <mxGeometry relative="1" as="geometry" />
        </mxCell>
        <mxCell id="FRPquQBEaZ74YHBhZvah-7" value="" style="rounded=0;whiteSpace=wrap;html=1;labelPosition=center;verticalLabelPosition=middle;align=center;verticalAlign=middle;" vertex="1" parent="1">
          <mxGeometry x="280" y="100" width="50" height="20" as="geometry" />
        </mxCell>
        <mxCell id="FRPquQBEaZ74YHBhZvah-12" value="6" style="rounded=0;whiteSpace=wrap;html=1;labelPosition=center;verticalLabelPosition=middle;align=center;verticalAlign=middle;" vertex="1" parent="1">
          <mxGeometry x="280" y="140" width="50" height="20" as="geometry" />
        </mxCell>
        <mxCell id="FRPquQBEaZ74YHBhZvah-13" value="Dummy" style="rounded=0;whiteSpace=wrap;html=1;labelPosition=center;verticalLabelPosition=middle;align=center;verticalAlign=middle;" vertex="1" parent="1">
          <mxGeometry x="280" y="120" width="50" height="20" as="geometry" />
        </mxCell>
        <mxCell id="FRPquQBEaZ74YHBhZvah-114" style="edgeStyle=orthogonalEdgeStyle;rounded=0;orthogonalLoop=1;jettySize=auto;html=1;exitX=0.5;exitY=0;exitDx=0;exitDy=0;entryX=0;entryY=0.5;entryDx=0;entryDy=0;" edge="1" parent="1" source="FRPquQBEaZ74YHBhZvah-14" target="FRPquQBEaZ74YHBhZvah-74">
          <mxGeometry relative="1" as="geometry" />
        </mxCell>
        <mxCell id="FRPquQBEaZ74YHBhZvah-14" value="" style="rounded=0;whiteSpace=wrap;html=1;labelPosition=center;verticalLabelPosition=middle;align=center;verticalAlign=middle;fillColor=none;" vertex="1" parent="1">
          <mxGeometry x="470" y="100" width="50" height="20" as="geometry" />
        </mxCell>
        <mxCell id="FRPquQBEaZ74YHBhZvah-15" value="null" style="rounded=0;whiteSpace=wrap;html=1;labelPosition=center;verticalLabelPosition=middle;align=center;verticalAlign=middle;fillColor=none;" vertex="1" parent="1">
          <mxGeometry x="470" y="140" width="50" height="20" as="geometry" />
        </mxCell>
        <mxCell id="FRPquQBEaZ74YHBhZvah-16" value="null" style="rounded=0;whiteSpace=wrap;html=1;labelPosition=center;verticalLabelPosition=middle;align=center;verticalAlign=middle;fillColor=none;" vertex="1" parent="1">
          <mxGeometry x="470" y="120" width="50" height="20" as="geometry" />
        </mxCell>
        <mxCell id="FRPquQBEaZ74YHBhZvah-41" style="edgeStyle=orthogonalEdgeStyle;rounded=0;orthogonalLoop=1;jettySize=auto;html=1;exitX=1;exitY=0.25;exitDx=0;exitDy=0;entryX=0;entryY=0.25;entryDx=0;entryDy=0;" edge="1" parent="1" source="FRPquQBEaZ74YHBhZvah-17" target="FRPquQBEaZ74YHBhZvah-20">
          <mxGeometry relative="1" as="geometry" />
        </mxCell>
        <mxCell id="FRPquQBEaZ74YHBhZvah-17" value="" style="rounded=0;whiteSpace=wrap;html=1;labelPosition=center;verticalLabelPosition=middle;align=center;verticalAlign=middle;fillColor=none;" vertex="1" parent="1">
          <mxGeometry x="470" y="160" width="50" height="20" as="geometry" />
        </mxCell>
        <mxCell id="FRPquQBEaZ74YHBhZvah-42" style="edgeStyle=orthogonalEdgeStyle;rounded=0;orthogonalLoop=1;jettySize=auto;html=1;exitX=1;exitY=0.25;exitDx=0;exitDy=0;entryX=0;entryY=0.25;entryDx=0;entryDy=0;" edge="1" parent="1" source="FRPquQBEaZ74YHBhZvah-18" target="FRPquQBEaZ74YHBhZvah-21">
          <mxGeometry relative="1" as="geometry" />
        </mxCell>
        <mxCell id="FRPquQBEaZ74YHBhZvah-18" value="" style="rounded=0;whiteSpace=wrap;html=1;labelPosition=center;verticalLabelPosition=middle;align=center;verticalAlign=middle;fillColor=none;" vertex="1" parent="1">
          <mxGeometry x="470" y="180" width="50" height="20" as="geometry" />
        </mxCell>
        <mxCell id="FRPquQBEaZ74YHBhZvah-43" style="edgeStyle=orthogonalEdgeStyle;rounded=0;orthogonalLoop=1;jettySize=auto;html=1;exitX=1;exitY=0.25;exitDx=0;exitDy=0;entryX=0;entryY=0.25;entryDx=0;entryDy=0;" edge="1" parent="1" source="FRPquQBEaZ74YHBhZvah-19" target="FRPquQBEaZ74YHBhZvah-22">
          <mxGeometry relative="1" as="geometry" />
        </mxCell>
        <mxCell id="FRPquQBEaZ74YHBhZvah-19" value="" style="rounded=0;whiteSpace=wrap;html=1;labelPosition=center;verticalLabelPosition=middle;align=center;verticalAlign=middle;fillColor=none;" vertex="1" parent="1">
          <mxGeometry x="470" y="200" width="50" height="20" as="geometry" />
        </mxCell>
        <mxCell id="FRPquQBEaZ74YHBhZvah-20" value="OOSE" style="rounded=0;whiteSpace=wrap;html=1;labelPosition=center;verticalLabelPosition=middle;align=center;verticalAlign=middle;" vertex="1" parent="1">
          <mxGeometry x="650" y="160" width="50" height="20" as="geometry" />
        </mxCell>
        <mxCell id="FRPquQBEaZ74YHBhZvah-21" value="6" style="rounded=0;whiteSpace=wrap;html=1;labelPosition=center;verticalLabelPosition=middle;align=center;verticalAlign=middle;" vertex="1" parent="1">
          <mxGeometry x="650" y="180" width="50" height="20" as="geometry" />
        </mxCell>
        <mxCell id="FRPquQBEaZ74YHBhZvah-22" value="18" style="rounded=0;whiteSpace=wrap;html=1;labelPosition=center;verticalLabelPosition=middle;align=center;verticalAlign=middle;" vertex="1" parent="1">
          <mxGeometry x="650" y="200" width="50" height="20" as="geometry" />
        </mxCell>
        <mxCell id="FRPquQBEaZ74YHBhZvah-30" value="class" style="text;html=1;align=left;verticalAlign=middle;whiteSpace=wrap;rounded=0;" vertex="1" parent="1">
          <mxGeometry x="335" y="100" width="50" height="20" as="geometry" />
        </mxCell>
        <mxCell id="FRPquQBEaZ74YHBhZvah-31" value="name" style="text;html=1;align=left;verticalAlign=middle;whiteSpace=wrap;rounded=0;" vertex="1" parent="1">
          <mxGeometry x="335" y="120" width="50" height="20" as="geometry" />
        </mxCell>
        <mxCell id="FRPquQBEaZ74YHBhZvah-32" value="cp" style="text;html=1;align=left;verticalAlign=middle;whiteSpace=wrap;rounded=0;" vertex="1" parent="1">
          <mxGeometry x="335" y="140" width="50" height="20" as="geometry" />
        </mxCell>
        <mxCell id="FRPquQBEaZ74YHBhZvah-33" value="class" style="text;html=1;align=left;verticalAlign=middle;whiteSpace=wrap;rounded=0;" vertex="1" parent="1">
          <mxGeometry x="530" y="100" width="50" height="20" as="geometry" />
        </mxCell>
        <mxCell id="FRPquQBEaZ74YHBhZvah-34" value="name" style="text;html=1;align=left;verticalAlign=middle;whiteSpace=wrap;rounded=0;" vertex="1" parent="1">
          <mxGeometry x="530" y="120" width="50" height="20" as="geometry" />
        </mxCell>
        <mxCell id="FRPquQBEaZ74YHBhZvah-35" value="cp" style="text;html=1;align=left;verticalAlign=middle;whiteSpace=wrap;rounded=0;" vertex="1" parent="1">
          <mxGeometry x="530" y="140" width="50" height="20" as="geometry" />
        </mxCell>
        <mxCell id="FRPquQBEaZ74YHBhZvah-36" value="name" style="text;html=1;align=left;verticalAlign=middle;whiteSpace=wrap;rounded=0;" vertex="1" parent="1">
          <mxGeometry x="530" y="160" width="50" height="20" as="geometry" />
        </mxCell>
        <mxCell id="FRPquQBEaZ74YHBhZvah-37" value="cp" style="text;html=1;align=left;verticalAlign=middle;whiteSpace=wrap;rounded=0;" vertex="1" parent="1">
          <mxGeometry x="530" y="180" width="50" height="20" as="geometry" />
        </mxCell>
        <mxCell id="FRPquQBEaZ74YHBhZvah-38" value="numberOfExercises" style="text;html=1;align=left;verticalAlign=middle;whiteSpace=wrap;rounded=0;" vertex="1" parent="1">
          <mxGeometry x="530" y="200" width="50" height="20" as="geometry" />
        </mxCell>
        <mxCell id="FRPquQBEaZ74YHBhZvah-46" value="0" style="text;html=1;align=right;verticalAlign=middle;whiteSpace=wrap;rounded=0;" vertex="1" parent="1">
          <mxGeometry x="260" y="100" width="10" height="20" as="geometry" />
        </mxCell>
        <mxCell id="FRPquQBEaZ74YHBhZvah-47" value="1" style="text;html=1;align=right;verticalAlign=middle;whiteSpace=wrap;rounded=0;" vertex="1" parent="1">
          <mxGeometry x="250" y="120" width="20" height="20" as="geometry" />
        </mxCell>
        <mxCell id="FRPquQBEaZ74YHBhZvah-48" value="2" style="text;html=1;align=right;verticalAlign=middle;whiteSpace=wrap;rounded=0;" vertex="1" parent="1">
          <mxGeometry x="250" y="140" width="20" height="20" as="geometry" />
        </mxCell>
        <mxCell id="FRPquQBEaZ74YHBhZvah-49" value="0" style="text;html=1;align=right;verticalAlign=middle;whiteSpace=wrap;rounded=0;" vertex="1" parent="1">
          <mxGeometry x="450" y="100" width="10" height="20" as="geometry" />
        </mxCell>
        <mxCell id="FRPquQBEaZ74YHBhZvah-50" value="1" style="text;html=1;align=right;verticalAlign=middle;whiteSpace=wrap;rounded=0;" vertex="1" parent="1">
          <mxGeometry x="440" y="120" width="20" height="20" as="geometry" />
        </mxCell>
        <mxCell id="FRPquQBEaZ74YHBhZvah-51" value="2" style="text;html=1;align=right;verticalAlign=middle;whiteSpace=wrap;rounded=0;" vertex="1" parent="1">
          <mxGeometry x="440" y="140" width="20" height="20" as="geometry" />
        </mxCell>
        <mxCell id="FRPquQBEaZ74YHBhZvah-52" value="3" style="text;html=1;align=right;verticalAlign=middle;whiteSpace=wrap;rounded=0;" vertex="1" parent="1">
          <mxGeometry x="440" y="160" width="20" height="20" as="geometry" />
        </mxCell>
        <mxCell id="FRPquQBEaZ74YHBhZvah-53" value="4" style="text;html=1;align=right;verticalAlign=middle;whiteSpace=wrap;rounded=0;" vertex="1" parent="1">
          <mxGeometry x="440" y="180" width="20" height="20" as="geometry" />
        </mxCell>
        <mxCell id="FRPquQBEaZ74YHBhZvah-54" value="5" style="text;html=1;align=right;verticalAlign=middle;whiteSpace=wrap;rounded=0;" vertex="1" parent="1">
          <mxGeometry x="440" y="200" width="20" height="20" as="geometry" />
        </mxCell>
        <mxCell id="FRPquQBEaZ74YHBhZvah-115" style="edgeStyle=orthogonalEdgeStyle;rounded=0;orthogonalLoop=1;jettySize=auto;html=1;exitX=1;exitY=0.5;exitDx=0;exitDy=0;entryX=0;entryY=0.5;entryDx=0;entryDy=0;" edge="1" parent="1" source="FRPquQBEaZ74YHBhZvah-55" target="FRPquQBEaZ74YHBhZvah-79">
          <mxGeometry relative="1" as="geometry" />
        </mxCell>
        <mxCell id="FRPquQBEaZ74YHBhZvah-55" value="" style="rounded=0;whiteSpace=wrap;html=1;labelPosition=center;verticalLabelPosition=middle;align=center;verticalAlign=middle;" vertex="1" parent="1">
          <mxGeometry x="372.5" y="20" width="50" height="20" as="geometry" />
        </mxCell>
        <mxCell id="FRPquQBEaZ74YHBhZvah-57" value="..." style="rounded=0;whiteSpace=wrap;html=1;labelPosition=center;verticalLabelPosition=middle;align=center;verticalAlign=middle;" vertex="1" parent="1">
          <mxGeometry x="372.5" y="40" width="50" height="20" as="geometry" />
        </mxCell>
        <mxCell id="FRPquQBEaZ74YHBhZvah-58" value="vTable" style="text;html=1;align=left;verticalAlign=middle;whiteSpace=wrap;rounded=0;" vertex="1" parent="1">
          <mxGeometry x="442.5" y="20" width="50" height="20" as="geometry" />
        </mxCell>
        <mxCell id="FRPquQBEaZ74YHBhZvah-61" value="0" style="text;html=1;align=right;verticalAlign=middle;whiteSpace=wrap;rounded=0;" vertex="1" parent="1">
          <mxGeometry x="352.5" y="20" width="10" height="20" as="geometry" />
        </mxCell>
        <mxCell id="FRPquQBEaZ74YHBhZvah-62" value="..." style="text;html=1;align=right;verticalAlign=middle;whiteSpace=wrap;rounded=0;" vertex="1" parent="1">
          <mxGeometry x="352.5" y="40" width="10" height="20" as="geometry" />
        </mxCell>
        <mxCell id="FRPquQBEaZ74YHBhZvah-64" value="Module" style="text;html=1;align=center;verticalAlign=middle;whiteSpace=wrap;rounded=0;" vertex="1" parent="1">
          <mxGeometry x="372.5" width="50" height="20" as="geometry" />
        </mxCell>
        <mxCell id="FRPquQBEaZ74YHBhZvah-116" style="edgeStyle=orthogonalEdgeStyle;rounded=0;orthogonalLoop=1;jettySize=auto;html=1;exitX=1;exitY=0.5;exitDx=0;exitDy=0;entryX=0;entryY=0.5;entryDx=0;entryDy=0;" edge="1" parent="1" source="FRPquQBEaZ74YHBhZvah-71" target="FRPquQBEaZ74YHBhZvah-105">
          <mxGeometry relative="1" as="geometry" />
        </mxCell>
        <mxCell id="FRPquQBEaZ74YHBhZvah-71" value="" style="rounded=0;whiteSpace=wrap;html=1;labelPosition=center;verticalLabelPosition=middle;align=center;verticalAlign=middle;" vertex="1" parent="1">
          <mxGeometry x="562.5" y="20" width="50" height="20" as="geometry" />
        </mxCell>
        <mxCell id="FRPquQBEaZ74YHBhZvah-72" value="..." style="rounded=0;whiteSpace=wrap;html=1;labelPosition=center;verticalLabelPosition=middle;align=center;verticalAlign=middle;" vertex="1" parent="1">
          <mxGeometry x="562.5" y="40" width="50" height="20" as="geometry" />
        </mxCell>
        <mxCell id="FRPquQBEaZ74YHBhZvah-73" value="vTable" style="text;html=1;align=left;verticalAlign=middle;whiteSpace=wrap;rounded=0;" vertex="1" parent="1">
          <mxGeometry x="632.5" y="20" width="50" height="20" as="geometry" />
        </mxCell>
        <mxCell id="FRPquQBEaZ74YHBhZvah-74" value="0" style="text;html=1;align=right;verticalAlign=middle;whiteSpace=wrap;rounded=0;" vertex="1" parent="1">
          <mxGeometry x="542.5" y="20" width="10" height="20" as="geometry" />
        </mxCell>
        <mxCell id="FRPquQBEaZ74YHBhZvah-75" value="..." style="text;html=1;align=right;verticalAlign=middle;whiteSpace=wrap;rounded=0;" vertex="1" parent="1">
          <mxGeometry x="542.5" y="40" width="10" height="20" as="geometry" />
        </mxCell>
        <mxCell id="FRPquQBEaZ74YHBhZvah-76" value="Lecture" style="text;html=1;align=center;verticalAlign=middle;whiteSpace=wrap;rounded=0;" vertex="1" parent="1">
          <mxGeometry x="562.5" width="50" height="20" as="geometry" />
        </mxCell>
        <mxCell id="FRPquQBEaZ74YHBhZvah-91" style="edgeStyle=orthogonalEdgeStyle;rounded=0;orthogonalLoop=1;jettySize=auto;html=1;exitX=1;exitY=0.5;exitDx=0;exitDy=0;entryX=1;entryY=0.5;entryDx=0;entryDy=0;" edge="1" parent="1" source="FRPquQBEaZ74YHBhZvah-77" target="FRPquQBEaZ74YHBhZvah-87">
          <mxGeometry relative="1" as="geometry" />
        </mxCell>
        <mxCell id="FRPquQBEaZ74YHBhZvah-77" value="" style="rounded=0;whiteSpace=wrap;html=1;labelPosition=center;verticalLabelPosition=middle;align=center;verticalAlign=middle;" vertex="1" parent="1">
          <mxGeometry x="482.5" y="-70" width="40" height="20" as="geometry" />
        </mxCell>
        <mxCell id="FRPquQBEaZ74YHBhZvah-92" style="edgeStyle=orthogonalEdgeStyle;rounded=0;orthogonalLoop=1;jettySize=auto;html=1;exitX=1;exitY=0.5;exitDx=0;exitDy=0;entryX=1;entryY=0.5;entryDx=0;entryDy=0;" edge="1" parent="1" source="FRPquQBEaZ74YHBhZvah-78" target="FRPquQBEaZ74YHBhZvah-88">
          <mxGeometry relative="1" as="geometry">
            <Array as="points">
              <mxPoint x="552.5" y="-40" />
              <mxPoint x="552.5" y="-120" />
            </Array>
          </mxGeometry>
        </mxCell>
        <mxCell id="FRPquQBEaZ74YHBhZvah-78" value="" style="rounded=0;whiteSpace=wrap;html=1;labelPosition=center;verticalLabelPosition=middle;align=center;verticalAlign=middle;" vertex="1" parent="1">
          <mxGeometry x="482.5" y="-50" width="40" height="20" as="geometry" />
        </mxCell>
        <mxCell id="FRPquQBEaZ74YHBhZvah-79" value="0" style="text;html=1;align=right;verticalAlign=middle;whiteSpace=wrap;rounded=0;" vertex="1" parent="1">
          <mxGeometry x="462.5" y="-70" width="10" height="20" as="geometry" />
        </mxCell>
        <mxCell id="FRPquQBEaZ74YHBhZvah-80" value="1" style="text;html=1;align=right;verticalAlign=middle;whiteSpace=wrap;rounded=0;" vertex="1" parent="1">
          <mxGeometry x="462.5" y="-50" width="10" height="20" as="geometry" />
        </mxCell>
        <mxCell id="FRPquQBEaZ74YHBhZvah-87" value="Module::getName(this)" style="rounded=0;whiteSpace=wrap;html=1;labelPosition=center;verticalLabelPosition=middle;align=center;verticalAlign=middle;" vertex="1" parent="1">
          <mxGeometry x="300" y="-150" width="195" height="20" as="geometry" />
        </mxCell>
        <mxCell id="FRPquQBEaZ74YHBhZvah-88" value="Module::register(this, Student)" style="rounded=0;whiteSpace=wrap;html=1;labelPosition=center;verticalLabelPosition=middle;align=center;verticalAlign=middle;" vertex="1" parent="1">
          <mxGeometry x="300" y="-130" width="195" height="20" as="geometry" />
        </mxCell>
        <mxCell id="FRPquQBEaZ74YHBhZvah-109" style="edgeStyle=orthogonalEdgeStyle;rounded=0;orthogonalLoop=1;jettySize=auto;html=1;exitX=1;exitY=0.5;exitDx=0;exitDy=0;entryX=0;entryY=0.5;entryDx=0;entryDy=0;" edge="1" parent="1" source="FRPquQBEaZ74YHBhZvah-102" target="FRPquQBEaZ74YHBhZvah-107">
          <mxGeometry relative="1" as="geometry" />
        </mxCell>
        <mxCell id="FRPquQBEaZ74YHBhZvah-102" value="" style="rounded=0;whiteSpace=wrap;html=1;labelPosition=center;verticalLabelPosition=middle;align=center;verticalAlign=middle;" vertex="1" parent="1">
          <mxGeometry x="672.5" y="-70" width="40" height="20" as="geometry" />
        </mxCell>
        <mxCell id="FRPquQBEaZ74YHBhZvah-110" style="edgeStyle=orthogonalEdgeStyle;rounded=0;orthogonalLoop=1;jettySize=auto;html=1;exitX=1;exitY=0.5;exitDx=0;exitDy=0;entryX=1;entryY=0.5;entryDx=0;entryDy=0;" edge="1" parent="1" source="FRPquQBEaZ74YHBhZvah-104" target="FRPquQBEaZ74YHBhZvah-88">
          <mxGeometry relative="1" as="geometry" />
        </mxCell>
        <mxCell id="FRPquQBEaZ74YHBhZvah-104" value="" style="rounded=0;whiteSpace=wrap;html=1;labelPosition=center;verticalLabelPosition=middle;align=center;verticalAlign=middle;" vertex="1" parent="1">
          <mxGeometry x="672.5" y="-50" width="40" height="20" as="geometry" />
        </mxCell>
        <mxCell id="FRPquQBEaZ74YHBhZvah-105" value="0" style="text;html=1;align=right;verticalAlign=middle;whiteSpace=wrap;rounded=0;" vertex="1" parent="1">
          <mxGeometry x="652.5" y="-70" width="10" height="20" as="geometry" />
        </mxCell>
        <mxCell id="FRPquQBEaZ74YHBhZvah-106" value="1" style="text;html=1;align=right;verticalAlign=middle;whiteSpace=wrap;rounded=0;" vertex="1" parent="1">
          <mxGeometry x="652.5" y="-50" width="10" height="20" as="geometry" />
        </mxCell>
        <mxCell id="FRPquQBEaZ74YHBhZvah-107" value="Lecture::getName(this)" style="rounded=0;whiteSpace=wrap;html=1;labelPosition=center;verticalLabelPosition=middle;align=center;verticalAlign=middle;" vertex="1" parent="1">
          <mxGeometry x="782.5" y="-150" width="195" height="20" as="geometry" />
        </mxCell>
        <mxCell id="FRPquQBEaZ74YHBhZvah-119" value="Static memory for classes" style="rounded=0;whiteSpace=wrap;html=1;fillColor=none;align=left;verticalAlign=middle;labelPosition=center;verticalLabelPosition=middle;" vertex="1" parent="1">
          <mxGeometry x="60" y="-10" width="940" height="90" as="geometry" />
        </mxCell>
        <mxCell id="FRPquQBEaZ74YHBhZvah-120" value="Static memory for vTables" style="rounded=0;whiteSpace=wrap;html=1;fillColor=none;align=left;verticalAlign=middle;labelPosition=center;verticalLabelPosition=middle;" vertex="1" parent="1">
          <mxGeometry x="60" y="-90" width="940" height="80" as="geometry" />
        </mxCell>
        <mxCell id="FRPquQBEaZ74YHBhZvah-121" value="Static memory&amp;nbsp;&lt;div&gt;for instance&amp;nbsp;&lt;/div&gt;&lt;div&gt;method implementations&lt;/div&gt;" style="rounded=0;whiteSpace=wrap;html=1;fillColor=none;align=left;verticalAlign=middle;labelPosition=center;verticalLabelPosition=middle;" vertex="1" parent="1">
          <mxGeometry x="60" y="-170" width="940" height="80" as="geometry" />
        </mxCell>
        <mxCell id="FRPquQBEaZ74YHBhZvah-123" value="Static memory for class members" style="rounded=0;whiteSpace=wrap;html=1;fillColor=none;align=left;verticalAlign=middle;labelPosition=center;verticalLabelPosition=middle;" vertex="1" parent="1">
          <mxGeometry x="60" y="-220" width="940" height="50" as="geometry" />
        </mxCell>
      </root>
    </mxGraphModel>
  </diagram>
</mxfile>
